<svg xmlns="http://www.w3.org/2000/svg" viewBox="0 0 20 20" fill="currentColor" className="size-5">
  <path fillRule="evenodd" d="M1.469 3.75a3.5 3.5 0 0 0 5.617 4.11l.883.51c.025.092.147.116.21.043.15-.176.318-.338.5-.484.286-.23.3-.709-.018-.892l-.825-.477A3.501 3.501 0 0 0 1.47 3.75Zm2.03 3.482a2 2 0 1 1 2-3.464 2 2 0 0 1-2 3.464ZM9.956 8.322a2.75 2.75 0 0 0-1.588 1.822L7.97 11.63l-.884.51A3.501 3.501 0 0 0 1.47 16.25a3.5 3.5 0 0 0 6.367-2.81l10.68-6.166a.75.75 0 0 0-.182-1.373l-.703-.189a2.75 2.75 0 0 0-1.78.123L9.955 8.322ZM2.768 15.5a2 2 0 1 1 3.464-2 2 2 0 0 1-3.464 2Z" clipRule="evenodd" />
  <path d="M12.52 11.89a.5.5 0 0 0 .056.894l3.274 1.381a2.75 2.75 0 0 0 1.78.123l.704-.189a.75.75 0 0 0 .18-1.373l-3.47-2.004a.5.5 0 0 0-.5 0L12.52 11.89Z" />
    <path d="M2.43597 15.4225C2.41332 15.3788 2.37889 15.3422 2.33658 15.3169C2.29426 15.2917 2.24574 15.2787 2.19646 15.2796C2.14719 15.2804 2.09913 15.295 2.05769 15.3217C2.01626 15.3483 1.98309 15.3861 1.96194 15.4306L1.15275 17.1283C1.01349 17.4203 0.975489 17.7504 1.04476 18.0664L1.1277 18.4432C1.14469 18.5197 1.18397 18.5895 1.24056 18.6437C1.29716 18.698 1.36854 18.7342 1.44571 18.7479C1.52289 18.7617 1.6024 18.7522 1.67422 18.7208C1.74604 18.6894 1.80695 18.6375 1.84929 18.5715L2.9926 16.7852C3.01764 16.7461 3.03193 16.7011 3.03405 16.6546C3.03617 16.6082 3.02603 16.5621 3.00467 16.5209L2.43597 15.4225Z"/>
</svg>


